<svg xmlns="http://www.w3.org/2000/svg" xmlns:xlink="http://www.w3.org/1999/xlink" width="80" height="80" viewBox="0 0 80 80">
  <defs>
    <clipPath id="clip-thumbs">
      <rect width="80" height="80"/>
    </clipPath>
  </defs>
  <g id="thumbs" clip-path="url(#clip-thumbs)">
    <rect width="80" height="80" fill="#314c1d"/>
    <text id="Gorth" transform="translate(34 51)" fill="#fff" font-size="14" font-family="Roboto-Bold, Roboto" font-weight="700"><tspan x="0" y="0">Gorth</tspan></text>
    <path id="Path_1" data-name="Path 1" d="M16.447-1264.178c0,1.019-.032,2.383-.055,2.347a.311.311,0,0,1-.024-.134,4.041,4.041,0,0,0-.168-.8,1.709,1.709,0,0,0-1.477-1.333,5.283,5.283,0,0,0-1.245-.152,6.47,6.47,0,0,0,.428.686,7.058,7.058,0,0,0,.925,1.155,1.593,1.593,0,0,0,.591.451,2.28,2.28,0,0,0,.754.241c.079,0,.092.013.163.16l.076.16-.024,2.085c-.016,1.15-.034,2.331-.045,2.629l-.018.542-.189-.157c-.179-.146-.192-.162-.192-.259a5.553,5.553,0,0,0-.25-1.092,3.239,3.239,0,0,0-.893-1.488,7.43,7.43,0,0,0-1.132-.93,4.314,4.314,0,0,0,.058.825,6.543,6.543,0,0,0,.515,1.718,2.092,2.092,0,0,0,1.356,1.042c.21.05.229.061.478.278l.263.225v.267c0,.147-.013,1.05-.026,2.009s-.037,2.844-.053,4.19c-.024,2.26-.05,3.428-.071,3.234-.026-.228-.263-1.605-.378-2.187a32.245,32.245,0,0,0-1.277-4.845c-.762-1.917-1.792-2.936-3.36-3.313l-.292-.071-.06-.231a.69.69,0,0,1-.016-.435,3.137,3.137,0,0,0-.011-1.087,2.367,2.367,0,0,0-.717-1.2,5.936,5.936,0,0,0-.977-.83,2.683,2.683,0,0,0-.617-.338c0,.058.121.684.184.943a4.406,4.406,0,0,0,.662,1.595,5.886,5.886,0,0,0,1.272,1.183c.076.037.092.063.123.2.021.089.034.162.034.165s-.2-.029-.452-.071a5.4,5.4,0,0,1-2.365-.754,4.284,4.284,0,0,1-1.8-2.826,3.71,3.71,0,0,1-.058-.872,3.306,3.306,0,0,1,.071-.9,5.487,5.487,0,0,1,.318-.987.2.2,0,0,0,.034-.1,3.647,3.647,0,0,0-.289.683,4.793,4.793,0,0,0,.313,3.625c.166.319.168.322.1.3a.631.631,0,0,1-.076-.021s-.029-.086-.06-.186a2.8,2.8,0,0,0-.659-1.071,5.715,5.715,0,0,0-.867-.621,8.291,8.291,0,0,0-1.256-.628,6.6,6.6,0,0,0,.373,1.333,1.785,1.785,0,0,0,.843,1.087,3,3,0,0,0,1.306.244.747.747,0,0,1,.376.05c.147.052.176.058.187.024s.053.013.134.125a4.928,4.928,0,0,0,.967.914,5.407,5.407,0,0,0,2.26.794c.318.065.615.131.657.144s.168.044.276.068a4.111,4.111,0,0,1,1.167.477,4.614,4.614,0,0,1,1.35,1.446l.055.094-.089.047-.089.05-.218-.146a2.706,2.706,0,0,0-.859-.414,2.367,2.367,0,0,0-1.847.838,2.109,2.109,0,0,0-.231.236,4.758,4.758,0,0,0,.738.291,2.208,2.208,0,0,0,1.658.079,5.213,5.213,0,0,0,.449-.382,1.931,1.931,0,0,1,.573-.43,6.345,6.345,0,0,1,.4.875,37.61,37.61,0,0,1,1.5,6.979c.066.521.071.657.016.364-.047-.243-.2-.82-.334-1.246-.828-2.663-2.428-4.423-4.393-4.829a3.935,3.935,0,0,0-.912-.06c-.347,0-.723.008-.833.018-.171.018-.2.013-.189-.018a.447.447,0,0,0-.063-.188.978.978,0,0,1-.1-.3,2.737,2.737,0,0,0-.754-1.747,2.882,2.882,0,0,0-1.046-.411,4.057,4.057,0,0,0-1.1-.1c0,.029.426.681.638.977.723,1,1.224,1.4,1.957,1.537a1.611,1.611,0,0,1,.2.045s.029.055.06.118c.042.084.047.113.024.121-.084.029-1.127.123-1.492.136a4.905,4.905,0,0,1-2.378-.477,2.237,2.237,0,0,1-.7-.456.069.069,0,0,0-.074-.052c-.042,0-.152-.092-.365-.309a4.241,4.241,0,0,1-1.146-2.111c-.047-.2-.058-.231-.047-.121a4.649,4.649,0,0,0,.434,1.317,3.812,3.812,0,0,0,.757,1.045l.2.2H3.828c-.1,0-.176-.011-.176-.026a4.589,4.589,0,0,0-.762-.61,3.328,3.328,0,0,0-.985-.466,2.945,2.945,0,0,0-.867-.063c-.72,0-1.038.023-1.038.081a5.091,5.091,0,0,0,.728.749,4.252,4.252,0,0,0,1.3.752,1.782,1.782,0,0,0,.93-.01,2.092,2.092,0,0,0,.573-.252c.055-.042.118-.05.336-.05H4.13l.147.113a5.106,5.106,0,0,0,3.276.951c.2-.01.688-.042,1.077-.071a9.354,9.354,0,0,1,2.173.026,4.571,4.571,0,0,1,2.47,1.535,2.289,2.289,0,0,1,.2.251.276.276,0,0,1-.123.031.19.19,0,0,1-.2-.06,5.159,5.159,0,0,0-1.287-.694,2.677,2.677,0,0,0-1.335-.1,8.241,8.241,0,0,0-.964.173l-.145.031.221.2a5.505,5.505,0,0,0,1.653.99,1.824,1.824,0,0,0,1.695-.275.657.657,0,0,1,.391-.168,1.789,1.789,0,0,1,.192-.018l.1.136a8.861,8.861,0,0,1,.909,1.755,17.787,17.787,0,0,1,.948,6.442l0,.812-.053-.223a16.088,16.088,0,0,0-2.3-5.44c-1.453-2.176-2.882-3.394-4.364-3.714a4.536,4.536,0,0,0-1.159-.039,3.433,3.433,0,0,0-.933.3l-.168.089-.244-.037c-.131-.021-.271-.037-.307-.037a.7.7,0,0,1-.25-.134,2.962,2.962,0,0,0-.828-.4,1.983,1.983,0,0,0-1.161.052,6.5,6.5,0,0,0-1.545.843,3.447,3.447,0,0,0-.552.5c0,.018.074.037.552.134a5.883,5.883,0,0,0,1.235.131,2.384,2.384,0,0,0,1.064-.178,6.288,6.288,0,0,0,1.366-.755l.105-.084.189.026a.618.618,0,0,1,.192.042.6.6,0,0,1-.129.1,4.413,4.413,0,0,0-.709.67A5.747,5.747,0,0,0,4.4-1246.29c-.045.27-.066.317-.1.256s-.058-.026-.131.128-.081.157-.234.212a3.811,3.811,0,0,0-1.216.725,3.452,3.452,0,0,0-.665,1.488c-.053.2-.184.788-.184.83a4.1,4.1,0,0,0,1.019-.482,2.3,2.3,0,0,0,.5-.479,7.071,7.071,0,0,0,.723-1.807,2.334,2.334,0,0,1,.158-.432l.071-.118-.016.1c-.008.058-.029.3-.045.529a8.234,8.234,0,0,0,.068,1.593c.024.113.034.136.026.066a8.04,8.04,0,0,1-.045-1.422,6.7,6.7,0,0,1,.675-2.65,4.088,4.088,0,0,1,.828-1.165,3.335,3.335,0,0,1,1.49-.883,2,2,0,0,1,.665-.068,2.924,2.924,0,0,1,1.127.191c.347.129.342.123.31.223-.026.084-.034.089-.213.118a3.6,3.6,0,0,0-.864.241,2.621,2.621,0,0,0-.98,2.071l-.018.228.181-.066a7.535,7.535,0,0,0,1.164-.589,2,2,0,0,0,.615-.618,3.349,3.349,0,0,0,.192-.966,1.4,1.4,0,0,1,.1-.427,1.44,1.44,0,0,1,.173.086c1.545.872,3.353,3.337,4.335,5.911a15.974,15.974,0,0,1,.956,4.057,21.786,21.786,0,0,1,.042,2.485c-.032.43-.16,1.488-.226,1.875a16.123,16.123,0,0,1-.78,2.781,2.3,2.3,0,0,1-.494.537,15.5,15.5,0,0,0,2.806.042c1.576,0,2.869,0,2.869-.011a2.944,2.944,0,0,0-.194-.251,2.915,2.915,0,0,1-.525-1.2,15.954,15.954,0,0,1-.631-6.482,16.676,16.676,0,0,1,.759-3.365,16.226,16.226,0,0,1,1.755-3.523,9.385,9.385,0,0,1,2.677-2.81c.105-.057.21-.115.231-.123.055-.021.1.1.142.422a3.338,3.338,0,0,0,.192.964,2,2,0,0,0,.615.618,7.535,7.535,0,0,0,1.164.589l.181.066-.018-.228a2.621,2.621,0,0,0-.98-2.071,3.6,3.6,0,0,0-.864-.241c-.181-.029-.187-.031-.215-.121-.032-.107-.032-.11.342-.235a3,3,0,0,1,1.1-.178,2,2,0,0,1,.633.071,4.134,4.134,0,0,1,2.743,3.13,7.614,7.614,0,0,1,.25,2.585c-.013.144-.029.333-.037.419-.013.155-.013.152.024-.039a7.9,7.9,0,0,0-.068-2.71,5.065,5.065,0,0,0-1.739-3.053c-.226-.17-.231-.16.06-.2a.226.226,0,0,1,.25.063,6.168,6.168,0,0,0,1.366.755,2.384,2.384,0,0,0,1.064.178,5.883,5.883,0,0,0,1.235-.131c.478-.1.552-.115.552-.134a3.447,3.447,0,0,0-.552-.5,6.5,6.5,0,0,0-1.545-.843,1.983,1.983,0,0,0-1.161-.052,2.962,2.962,0,0,0-.828.4.7.7,0,0,1-.25.134c-.037,0-.176.018-.313.037l-.25.037-.179-.089a3.041,3.041,0,0,0-1.369-.325,4.654,4.654,0,0,0-3.345,1.637,15.4,15.4,0,0,0-3.941,7.15l-.166.655v-.72a20.737,20.737,0,0,1,.525-5.154,9.469,9.469,0,0,1,1.3-3.083c.126-.178.131-.184.231-.178a.675.675,0,0,1,.476.155,1.85,1.85,0,0,0,1.724.3,5.506,5.506,0,0,0,1.653-.99l.221-.2-.145-.031a8.241,8.241,0,0,0-.964-.173,2.677,2.677,0,0,0-1.335.1,4.98,4.98,0,0,0-1.3.7c-.055.057-.079.065-.184.05a.43.43,0,0,1-.139-.031,3.8,3.8,0,0,1,.638-.712,4.3,4.3,0,0,1,2.015-1.074,9.488,9.488,0,0,1,2.186-.026,11.188,11.188,0,0,0,1.771.057,6.046,6.046,0,0,0,1.224-.238,5.273,5.273,0,0,0,1.385-.723c.108-.089.11-.089.389-.089.231,0,.294.008.349.05a2.093,2.093,0,0,0,.573.252,1.782,1.782,0,0,0,.93.01,4.252,4.252,0,0,0,1.3-.752,5.09,5.09,0,0,0,.728-.749c0-.058-.318-.081-1.038-.081a2.945,2.945,0,0,0-.867.063,3.327,3.327,0,0,0-.985.466,4.589,4.589,0,0,0-.762.61c0,.016-.076.026-.171.026s-.171-.011-.171-.024.032-.05.068-.079a4.008,4.008,0,0,0,.565-.665,4.9,4.9,0,0,0,.523-1.027,4.447,4.447,0,0,0,.208-.825c0-.047-.011-.037-.026.039a4.56,4.56,0,0,1-.694,1.673,4.951,4.951,0,0,1-.807.87.441.441,0,0,0-.142.1,2.051,2.051,0,0,1-.31.22,4.844,4.844,0,0,1-2.748.673c-.347-.013-1.466-.115-1.492-.136a1.409,1.409,0,0,1,.11-.238,1.611,1.611,0,0,1,.2-.045,2.773,2.773,0,0,0,.772-.291,5.814,5.814,0,0,0,1.421-1.585c.152-.228.4-.628.4-.644a4.582,4.582,0,0,0-1.1.11,2.42,2.42,0,0,0-1.172.527,2.931,2.931,0,0,0-.617,1.553,1.229,1.229,0,0,1-.108.377.447.447,0,0,0-.063.188c.011.031-.018.034-.176.018-.105-.013-.483-.021-.846-.021a3.743,3.743,0,0,0-.938.06c-1.724.359-3.169,1.755-4.062,3.926a14.261,14.261,0,0,0-.662,2.163.554.554,0,0,1-.039.144c-.011-.01.121-1.029.208-1.619a41.9,41.9,0,0,1,1.132-5.251,8.882,8.882,0,0,1,.476-1.236l.137-.293.131.071a3.587,3.587,0,0,1,.47.382,5.214,5.214,0,0,0,.449.382,2.208,2.208,0,0,0,1.658-.079,4.757,4.757,0,0,0,.738-.291,2.229,2.229,0,0,0-.229-.236,2.375,2.375,0,0,0-1.85-.838,2.706,2.706,0,0,0-.859.414l-.218.146-.089-.05a.283.283,0,0,1-.092-.063,3.716,3.716,0,0,1,.323-.505,3.793,3.793,0,0,1,1.687-1.328,3.909,3.909,0,0,1,.786-.218c.008.008.029,0,.047-.013a4.2,4.2,0,0,1,.52-.123,5.78,5.78,0,0,0,2.4-.836,4.6,4.6,0,0,0,.906-.859c.145-.186.181-.218.192-.176s.016.05.184-.013a.7.7,0,0,1,.376-.05,3.014,3.014,0,0,0,1.311-.244c.418-.2.709-.639.983-1.469a6.652,6.652,0,0,0,.234-.943c-.005-.029-.129.024-.494.21a7.454,7.454,0,0,0-1.629,1.032,2.891,2.891,0,0,0-.673,1.11c-.037.131-.053.149-.131.175-.05.013-.089.021-.089.013s.047-.092.1-.188a4.635,4.635,0,0,0,.568-1.755,4.765,4.765,0,0,0-.381-2.522,1.875,1.875,0,0,0-.129-.265c-.016-.016.018.078.074.207a5.941,5.941,0,0,1,.323,1.008,3.491,3.491,0,0,1,.06.849,3.808,3.808,0,0,1-.134,1.22,4.169,4.169,0,0,1-2.152,2.734,5.069,5.069,0,0,1-1.156.364c-.352.071-1.206.223-1.211.215a1.578,1.578,0,0,1,.034-.162c.032-.139.047-.165.123-.2a5.886,5.886,0,0,0,1.272-1.183,4.406,4.406,0,0,0,.662-1.595c.063-.259.184-.885.184-.943a2.683,2.683,0,0,0-.617.338,5.936,5.936,0,0,0-.977.83,2.367,2.367,0,0,0-.717,1.2,3.137,3.137,0,0,0-.011,1.087.682.682,0,0,1-.016.432l-.058.231-.347.084a3.853,3.853,0,0,0-2.013,1.144,5.927,5.927,0,0,0-1.2,1.87,36.775,36.775,0,0,0-1.768,7.32c-.029.215-.06.4-.066.4s-.011-.217-.011-.5-.013-1.346-.026-2.367-.037-2.792-.053-3.929-.039-3.017-.055-4.175c-.016-1.218-.018-2.113-.005-2.121a1.437,1.437,0,0,0,.139-.168c.092-.123.126-.149.168-.139a3.547,3.547,0,0,0,1.419.058,2.625,2.625,0,0,0,1.235-1.16,7.364,7.364,0,0,0,.426-.883l.018-.076-.352.018a3.579,3.579,0,0,0-2.252.636,2.14,2.14,0,0,0-.41.7,6.479,6.479,0,0,1-.331.631l-.071.081-.018-.474c-.011-.259-.018-.775-.018-1.142,0-.937-.047-3.907-.063-3.923S16.447-1264.531,16.447-1264.178Z" transform="translate(7 1286.799)" fill="#fff"/>
  </g>
</svg>
